<svg xmlns="http://www.w3.org/2000/svg" width="1024" height="1024" viewBox="0 0 1024 1024"><rect width="100%" height="100%" fill="#0f0f0f"/><path fill="#ffffff" d="m270.115 523.145-3.38 40.5q10.54-1.4 15.96-7.12 5.43-5.72 5.43-14.97 0-3.78-1.35-6.62-1.34-2.84-3.78-5.02-2.43-2.19-5.72-3.79-3.28-1.59-7.16-2.98m-12.84-27.76 3.09-36.92q-5.57.7-9.46 2.34-3.88 1.64-6.36 4.03-2.49 2.39-3.64 5.38-1.14 2.98-1.14 6.26 0 3.79 1.34 6.62 1.35 2.84 3.69 5.08 2.33 2.23 5.52 3.98 3.18 1.74 6.96 3.23m18.21-36.42-3.48 41.2q7.16 2.18 14.23 4.82 7.06 2.64 12.68 6.82 5.63 4.18 9.11 10.39 3.48 6.22 3.48 15.58 0 9.25-3.08 17.36-3.09 8.11-9.06 14.33t-14.63 10.15q-8.65 3.93-19.8 4.62l-1.19 14.63q-.1 2.29-1.94 4.23t-4.63 1.94h-9.05l1.79-21.29q-11.64-1.6-21.89-6.37-10.25-4.78-17.41-11.84l7.56-11.25q.99-1.49 2.64-2.43 1.64-.95 3.53-.95 2.19 0 4.67 1.54 2.49 1.54 5.68 3.58 3.18 2.04 7.26 4.13t9.65 3.09l3.68-44.48q-7.06-1.99-13.98-4.67-6.91-2.69-12.43-7.12-5.53-4.43-8.91-11.19-3.38-6.77-3.38-16.92 0-7.56 2.98-14.77 2.99-7.22 8.81-12.89t14.28-9.35q8.45-3.68 19.4-4.18l1.09-12.54q.2-2.39 1.99-4.28t4.68-1.89h9.05l-1.59 19.51q10.55 1.69 18.21 6.02 7.66 4.32 13.23 9.7l-5.97 9.05q-1.29 1.99-2.68 2.99-1.4.99-3.39.99-1.49 0-3.58-.94-2.09-.95-4.67-2.29-2.59-1.35-5.82-2.74-3.24-1.39-7.12-2.29m150.64 1.3h-63.87v42.58h53.92v21.39h-53.92v58.61h-26.87v-143.88h90.74zm52.14 68.25h45.77l-17.51-47.86q-1.29-3.18-2.69-7.56-1.39-4.38-2.78-9.45-1.3 5.07-2.69 9.5t-2.69 7.71zm36.52-89.55 56.51 143.88h-20.69q-3.48 0-5.67-1.74t-3.29-4.33l-10.74-29.35h-59.6l-10.75 29.35q-.79 2.29-3.08 4.18t-5.67 1.89h-20.9l56.62-143.88zm98.21 0v60.3h6.26q3.78 0 6.27-1.04 2.49-1.05 4.28-3.34l39.7-50.25q2.49-3.18 5.22-4.42 2.74-1.25 6.92-1.25h23.08l-48.45 59.8q-4.28 5.47-8.86 7.76 3.29 1.2 5.92 3.34 2.64 2.14 5.03 5.62l49.95 67.36h-23.59q-4.77 0-7.11-1.34-2.34-1.35-3.93-3.93l-40.7-53.14q-1.89-2.68-4.37-3.78-2.49-1.09-7.17-1.09h-8.45v63.28h-26.77v-143.88zm200.39 21.3h-63.88v39.9h50.35v20.59h-50.35v40.7h63.88v21.39h-90.75v-143.88h90.75z"/></svg>