<svg xmlns="http://www.w3.org/2000/svg" width="1200" height="630" viewBox="0 0 1200 630"><rect width="100%" height="100%" fill="#0f0f0f"/><path fill="#ffffff" d="M268.795 316h27.83l-10.65-29.1q-.78-1.94-1.63-4.6t-1.69-5.75q-.79 3.09-1.64 5.78t-1.63 4.69zm22.2-54.45 34.37 87.48h-12.59q-2.11 0-3.44-1.06-1.34-1.06-2-2.63l-6.53-17.85h-36.24l-6.54 17.85q-.48 1.39-1.87 2.54-1.4 1.15-3.45 1.15h-12.71l34.43-87.48zm56.03 87.48h-14.95v-62.07h9.14q2.9 0 3.81 2.72l.97 4.6q1.63-1.82 3.42-3.33 1.78-1.51 3.81-2.6t4.35-1.73q2.33-.63 5.12-.63 5.87 0 9.65 3.18 3.78 3.17 5.65 8.44 1.46-3.09 3.63-5.3 2.18-2.21 4.78-3.6t5.54-2.06q2.93-.66 5.9-.66 5.14 0 9.13 1.57 4 1.58 6.72 4.6 2.72 3.03 4.14 7.38 1.42 4.36 1.42 9.98v39.51h-14.94v-39.51q0-5.93-2.6-8.92t-7.62-2.99q-2.3 0-4.27.78-1.97.79-3.45 2.27t-2.33 3.72q-.84 2.24-.84 5.14v39.51h-15.01v-39.51q0-6.23-2.51-9.07t-7.35-2.84q-3.27 0-6.08 1.6t-5.23 4.38zm134.49-87.48v87.48h-16.34v-87.48zm104.12 12.94h-38.84v24.26h30.61v12.53h-30.61v24.74h38.84v13.01h-55.18v-87.48h55.18zm12.22-15.36h14.94v89.9h-14.94zm30.37 27.83h15.01v62.07h-15.01zm17.06-18.09q0 1.93-.78 3.63-.79 1.69-2.09 2.96t-3.06 2.03q-1.75.76-3.75.76-1.93 0-3.66-.76-1.72-.76-2.99-2.03t-2.03-2.96q-.76-1.7-.76-3.63 0-2 .76-3.75.76-1.76 2.03-3.03t2.99-2.03q1.73-.75 3.66-.75 2 0 3.75.75 1.76.76 3.06 2.03t2.09 3.03q.78 1.75.78 3.75m35.88 47.61q2.78 0 4.84-.76 2.06-.75 3.42-2.08t2.05-3.21q.7-1.87.7-4.11 0-4.6-2.75-7.29-2.76-2.7-8.26-2.7-5.51 0-8.26 2.7-2.75 2.69-2.75 7.29 0 2.18.69 4.05.7 1.88 2.06 3.24t3.45 2.11q2.09.76 4.81.76m16.88 35.33q0-1.81-1.09-2.96t-2.97-1.79q-1.87-.63-4.38-.93-2.51-.31-5.33-.46-2.81-.15-5.8-.27-3-.12-5.84-.48-2.48 1.39-4.03 3.26-1.54 1.88-1.54 4.36 0 1.63.82 3.05.82 1.43 2.6 2.45 1.79 1.03 4.63 1.61 2.84.57 6.96.57 4.17 0 7.2-.63 3.02-.64 4.99-1.76 1.96-1.12 2.87-2.66t.91-3.36m-2.97-62.74h17.85v5.57q0 2.66-3.21 3.27l-5.56 1.03q1.27 3.2 1.27 7.01 0 4.6-1.85 8.32-1.84 3.72-5.11 6.33-3.27 2.6-7.71 4.02-4.45 1.42-9.59 1.42-1.82 0-3.51-.18t-3.33-.49q-2.9 1.76-2.9 3.94 0 1.87 1.72 2.75 1.73.88 4.57 1.24t6.47.45 7.45.4q3.81.3 7.44 1.06 3.63.75 6.47 2.39 2.84 1.63 4.57 4.44 1.72 2.82 1.72 7.23 0 4.12-2.02 7.99-2.03 3.87-5.87 6.9-3.84 3.02-9.44 4.87-5.6 1.84-12.74 1.84-7.01 0-12.22-1.36-5.2-1.36-8.65-3.63t-5.14-5.23q-1.7-2.97-1.7-6.17 0-4.36 2.64-7.3 2.63-2.93 7.23-4.68-2.48-1.27-3.94-3.39-1.45-2.12-1.45-5.57 0-1.39.52-2.87.51-1.48 1.51-2.94 1-1.45 2.51-2.75t3.57-2.33q-4.72-2.54-7.41-6.77-2.69-4.24-2.69-9.93 0-4.59 1.84-8.31 1.85-3.73 5.14-6.36 3.3-2.63 7.81-4.02 4.5-1.39 9.83-1.39 3.99 0 7.5.81 3.51.82 6.41 2.39m27.77-2.11h15.01v62.07h-15.01zm17.06-18.09q0 1.93-.78 3.63-.79 1.69-2.09 2.96t-3.05 2.03q-1.76.76-3.76.76-1.93 0-3.66-.76-1.72-.76-2.99-2.03t-2.03-2.96q-.75-1.7-.75-3.63 0-2 .75-3.75.76-1.76 2.03-3.03t2.99-2.03q1.73-.75 3.66-.75 2 0 3.76.75 1.75.76 3.05 2.03t2.09 3.03q.78 1.75.78 3.75m28.14 36.24v27.83q2.54 3.08 5.53 4.35 3 1.27 6.32 1.27 3.45 0 6.21-1.24 2.75-1.24 4.68-3.87 1.94-2.63 2.97-6.71 1.03-4.09 1.03-9.77 0-10.23-3.39-14.8-3.39-4.56-9.74-4.56-4.3 0-7.5 1.96-3.21 1.97-6.11 5.54m0-45.98v35.45q3.75-3.93 8.32-6.26 4.56-2.33 10.43-2.33 5.39 0 9.71 2.12 4.33 2.11 7.38 6.08 3.06 3.96 4.69 9.59 1.64 5.62 1.64 12.64 0 7.56-1.88 13.73t-5.35 10.56q-3.48 4.39-8.38 6.81t-10.89 2.42q-2.91 0-5.27-.58-2.36-.57-4.35-1.6-2-1.03-3.66-2.51-1.67-1.48-3.18-3.3l-.67 4.18q-.36 1.57-1.24 2.23-.87.67-2.39.67h-9.86v-89.9zm53.9 0h14.95v89.9h-14.95zm41.69 51.72h28.19q0-2.9-.82-5.47-.81-2.57-2.45-4.51-1.63-1.93-4.14-3.05t-5.84-1.12q-6.47 0-10.19 3.69t-4.75 10.46m38.11 9.02h-38.42q.37 4.78 1.7 8.26t3.51 5.74q2.17 2.27 5.17 3.39 2.99 1.12 6.62 1.12t6.27-.84q2.63-.85 4.59-1.88 1.97-1.03 3.45-1.88 1.49-.84 2.88-.84 1.87 0 2.78 1.39l4.29 5.44q-2.48 2.91-5.56 4.87-3.09 1.97-6.44 3.15-3.36 1.18-6.84 1.66-3.48.49-6.75.49-6.47 0-12.04-2.15-5.56-2.15-9.68-6.35-4.11-4.21-6.47-10.41t-2.36-14.37q0-6.35 2.06-11.95 2.06-5.59 5.9-9.74 3.84-4.14 9.37-6.56 5.54-2.42 12.5-2.42 5.87 0 10.83 1.87 4.96 1.88 8.53 5.48t5.59 8.83q2.03 5.24 2.03 11.95 0 3.39-.73 4.57-.72 1.18-2.78 1.18m15.55-44.17-3.93-6.23q2.05-1.81 4.5-3.45 2.46-1.63 5.3-2.84t6.17-1.91q3.33-.69 7.2-.69 5.26 0 9.59 1.45 4.32 1.45 7.41 4.15 3.09 2.69 4.78 6.5t1.69 8.53q0 4.6-1.33 7.96-1.33 3.35-3.33 5.83-1.99 2.48-4.38 4.3-2.39 1.81-4.51 3.42-2.12 1.6-3.66 3.14-1.54 1.55-1.84 3.48l-1.4 8.83h-10.22l-1.03-9.86q-.36-2.84.82-4.99t3.14-3.93q1.97-1.78 4.39-3.45 2.42-1.66 4.54-3.63 2.12-1.96 3.54-4.42 1.42-2.45 1.42-5.83 0-2.18-.82-3.91-.82-1.72-2.27-2.96t-3.48-1.91q-2.02-.66-4.38-.66-3.45 0-5.84.75-2.39.76-4.05 1.7-1.67.94-2.82 1.69-1.15.76-2.05.76-2.18 0-3.15-1.82m7.5 65.1q0-1.87.7-3.57.69-1.69 1.9-2.9t2.91-1.94q1.69-.72 3.63-.72 1.93 0 3.6.72 1.66.73 2.9 1.94t1.97 2.9q.72 1.7.72 3.57 0 1.94-.72 3.6-.73 1.67-1.97 2.88t-2.9 1.9q-1.67.7-3.6.7-1.94 0-3.63-.7-1.7-.69-2.91-1.9t-1.9-2.88q-.7-1.66-.7-3.6"/></svg>