<svg xmlns="http://www.w3.org/2000/svg" width="200" height="200" viewBox="0 0 200 200"><rect width="100%" height="100%" fill="#0f0f0f"/><path fill="#ffffff" d="m52.595 102.185-.66 7.94q2.06-.28 3.12-1.4 1.07-1.12 1.07-2.93 0-.74-.27-1.3-.26-.56-.74-.98-.47-.43-1.12-.75-.64-.31-1.4-.58m-2.52-5.44.61-7.24q-1.09.14-1.86.46-.76.33-1.24.79-.49.47-.72 1.06-.22.58-.22 1.22 0 .75.26 1.3.27.56.73 1 .45.43 1.08.78.62.34 1.36.63m3.57-7.14-.68 8.08q1.4.42 2.79.94 1.38.52 2.48 1.34 1.11.82 1.79 2.03.68 1.22.68 3.06 0 1.81-.6 3.4-.61 1.59-1.78 2.81t-2.87 1.99q-1.69.77-3.88.9l-.23 2.87q-.02.45-.38.83t-.91.38h-1.77l.35-4.17q-2.28-.32-4.29-1.25-2.01-.94-3.41-2.32l1.48-2.21q.19-.29.52-.47.32-.19.69-.19.43 0 .91.3.49.3 1.12.7.62.4 1.42.81t1.89.61l.72-8.72q-1.38-.39-2.74-.91-1.35-.53-2.43-1.4-1.09-.87-1.75-2.19-.66-1.33-.66-3.32 0-1.48.58-2.89.59-1.42 1.73-2.53t2.8-1.83q1.65-.72 3.8-.82l.21-2.46q.04-.47.39-.84t.92-.37h1.77l-.31 3.83q2.07.33 3.57 1.18 1.5.84 2.59 1.9l-1.17 1.77q-.25.39-.52.59-.28.19-.67.19-.29 0-.7-.18-.41-.19-.91-.45-.51-.27-1.14-.54-.64-.27-1.4-.45m29.52.26h-12.51v8.34h10.56v4.19h-10.56v11.49h-5.27v-28.2h17.78zm10.22 13.37h8.97l-3.43-9.38q-.25-.62-.53-1.48-.27-.86-.54-1.85-.26.99-.53 1.86t-.53 1.51zm7.16-17.55 11.07 28.2h-4.05q-.68 0-1.11-.34t-.65-.85l-2.1-5.75h-11.68l-2.11 5.75q-.15.45-.6.82t-1.11.37h-4.1l11.1-28.2zm19.25 0v11.82h1.22q.74 0 1.23-.2.49-.21.84-.66l7.78-9.85q.49-.62 1.02-.86.54-.25 1.36-.25h4.52l-9.49 11.72q-.84 1.08-1.74 1.52.65.24 1.16.66.52.42.99 1.1l9.79 13.2h-4.63q-.93 0-1.39-.26-.46-.27-.77-.77l-7.98-10.42q-.37-.52-.85-.74-.49-.21-1.41-.21h-1.65v12.4h-5.25v-28.2zm39.27 4.18h-12.52v7.82h9.87v4.03h-9.87v7.98h12.52v4.19h-17.79v-28.2h17.79z"/></svg>